<svg xmlns="http://www.w3.org/2000/svg" width="19.141" height="21.69" viewBox="0 0 19.141 21.69"><g transform="translate(-129.037 -229.897)"><g transform="translate(129.037 229.897)"><path d="M254.376,496.038a2.051,2.051,0,0,1-.924-.6c-.87-.855-1.751-1.7-2.615-2.539l1.8-1.795,1.247,1.2c.322-.312.65-.6.943-.924a.594.594,0,0,0-.06-.842c-.241-.247-.5-.482-.775-.751l1.06-.807a10.1,10.1,0,0,1,.915,1.066,1.818,1.818,0,0,1-.232,2.23c-.292.314-.615.6-.926.9.212.216.384.412.577.583a1.282,1.282,0,0,1-.548,2.256.123.123,0,0,0-.036.022Z" transform="translate(-243.957 -474.349)" fill="#e6e6e6"/><path d="M221.234,300.66a13.555,13.555,0,0,0-6.31,3.063l-4.6-4.61a13.651,13.651,0,0,0,3.029-6.339Z" transform="translate(-205.729 -289.222)" fill="#e6e6e6"/><path d="M137.2,427.693c-.033.035-.079.087-.128.136q-1.444,1.445-2.889,2.889a1.909,1.909,0,0,1-2.883,0q-.824-.823-1.647-1.647a1.9,1.9,0,0,1,0-2.807q1.479-1.485,2.964-2.964c.039-.039.081-.076.1-.095Zm-5.132-.059a.736.736,0,0,0,.417.613.609.609,0,0,0,.7-.132c.3-.294.605-.593.9-.9a.627.627,0,0,0,0-.9.636.636,0,0,0-.911.015c-.293.286-.589.57-.865.872A2.178,2.178,0,0,0,132.072,427.634Z" transform="translate(-129.037 -412.289)" fill="#e6e6e6"/><path d="M269.934,232.944a1.32,1.32,0,0,1,.9.423q1.539,1.546,3.084,3.086,2.628,2.628,5.257,5.256a1.272,1.272,0,0,1-1.619,1.961,2.538,2.538,0,0,1-.217-.2q-4.134-4.133-8.268-8.265a1.28,1.28,0,0,1,.862-2.26Z" transform="translate(-260.729 -232.772)" fill="#e6e6e6"/><path d="M400.31,254.2a1.507,1.507,0,0,1,.209-.369c.4-.425.821-.836,1.239-1.246a.631.631,0,0,1,.911-.015.622.622,0,0,1,0,.894q-.632.655-1.288,1.286a.59.59,0,0,1-.705.108A.674.674,0,0,1,400.31,254.2Z" transform="translate(-384.987 -251.115)" fill="#e6e6e6"/><path d="M355.421,231.161c0-.211,0-.423,0-.634a.632.632,0,0,1,1.262-.04c.018.45.017.9,0,1.351a.632.632,0,0,1-1.264-.044C355.417,231.584,355.421,231.372,355.421,231.161Z" transform="translate(-342.632 -229.897)" fill="#e6e6e6"/><path d="M424.209,321.105c-.2,0-.408,0-.612,0a.634.634,0,1,1,0-1.268c.422-.006.845-.007,1.267,0a.633.633,0,0,1,0,1.267C424.646,321.111,424.428,321.105,424.209,321.105Z" transform="translate(-406.355 -314.752)" fill="#e6e6e6"/></g></g></svg>