<svg xmlns="http://www.w3.org/2000/svg" width="13.158" height="15.745" viewBox="0 0 13.158 15.745"><path d="M-380.407-12.624c.3.21.317.383.049.651l-.754.756a3.858,3.858,0,0,1,1.639,3.149h-7.894a3.849,3.849,0,0,1,1.638-3.149l-.755-.755c-.268-.268-.255-.441.049-.651h.154a2.609,2.609,0,0,1,.254.192c.207.2.407.4.61.605.222.221.222.221.506.1a2.028,2.028,0,0,1,.2-.073,4.151,4.151,0,0,1,2.962.153.14.14,0,0,0,.184-.041q.364-.373.739-.737a2.79,2.79,0,0,1,.265-.2Zm-4.657,3.416a.486.486,0,0,0,.487-.489.493.493,0,0,0-.484-.494.5.5,0,0,0-.5.5A.488.488,0,0,0-385.064-9.208Zm3.283,0a.488.488,0,0,0,.5-.481.5.5,0,0,0-.493-.5.493.493,0,0,0-.487.492A.485.485,0,0,0-381.781-9.208Z" transform="translate(390 12.624)" fill="#fff"/><path d="M-387.308,67.035h7.88V67.2q0,3.159,0,6.319c0,.522-.225.744-.751.745h-.552c0,.069-.009.128-.009.187,0,.676,0,1.353,0,2.029a1.018,1.018,0,0,1-.792,1.048,1,1,0,0,1-1.18-1.042c0-.671,0-1.343,0-2.014v-.2h-1.313v.177c0,.676,0,1.353,0,2.029a1.015,1.015,0,0,1-.84,1.054.976.976,0,0,1-1.113-.853c-.029-.542-.015-1.086-.019-1.629,0-.256,0-.512,0-.793-.239,0-.468.005-.7,0a.6.6,0,0,1-.6-.478,1.038,1.038,0,0,1-.019-.229q0-3.19,0-6.38C-387.315,67.13-387.311,67.09-387.308,67.035Z" transform="translate(389.95 -61.802)" fill="#fff"/><path d="M-425.46,70.348c0,.748,0,1.5,0,2.244a1,1,0,0,1-.876,1.032.991.991,0,0,1-1.07-.8,1.69,1.69,0,0,1-.023-.26q0-2.214,0-4.427a1.016,1.016,0,0,1,.695-1.015.971.971,0,0,1,1.264.848c.025.722.01,1.445.012,2.167C-425.46,70.2-425.46,70.276-425.46,70.348Z" transform="translate(427.431 -61.837)" fill="#fff"/><path d="M-255.2,70.318c0,.743,0,1.486,0,2.229a1,1,0,0,1-.891,1.039,1,1,0,0,1-1.07-.861c-.006-.061-.009-.123-.009-.184q0-2.229,0-4.458a1.009,1.009,0,0,1,.655-1,.992.992,0,0,1,1.314.986C-255.192,68.821-255.2,69.569-255.2,70.318Z" transform="translate(268.352 -61.796)" fill="#fff"/></svg>