<svg xmlns="http://www.w3.org/2000/svg" width="20.98" height="6.062" viewBox="0 0 20.98 6.062"><g transform="translate(-5730.484 -4465.798)"><path d="M-356.906,294.963a6.026,6.026,0,0,1,2.828-.218,1.419,1.419,0,0,1,1.276,1.05,1.341,1.341,0,0,1-.467,1.58,5,5,0,0,1,.608,1.2,1.582,1.582,0,0,1-1.186,1.825,7.453,7.453,0,0,1-2.206.024.96.96,0,0,1-.845-.992C-356.92,297.95-356.906,296.473-356.906,294.963Zm1.826,3.04c-.285-.035-.575-.042-.555.493.031.823.019.845.894.81a1.227,1.227,0,0,0,.335-.037.565.565,0,0,0,.437-.613C-353.993,298.171-354.246,298.005-355.08,298Zm-.051-1.055c.746,0,1.055-.18,1.06-.578s-.326-.57-1-.576c-.481,0-.613.19-.606.666S-355.435,296.991-355.131,296.948Z" transform="translate(6087.395 4171.209)" fill="#fff"/><path d="M-257.306,296.879c.053-1.7.792-2.708,2.119-3.016a2.592,2.592,0,0,1,3.257,2.278,5.286,5.286,0,0,1-.222,2.04,2.55,2.55,0,0,1-2.8,1.643,2.719,2.719,0,0,1-2.317-2.351C-257.291,297.231-257.3,296.988-257.306,296.879Zm4.111.1c-.034-.353-.041-.581-.08-.8a1.351,1.351,0,0,0-1.323-1.2,1.257,1.257,0,0,0-1.254,1.087,5.388,5.388,0,0,0,.095,1.77,1.1,1.1,0,0,0,1.149.809,1.149,1.149,0,0,0,1.2-.746A5.727,5.727,0,0,0-253.195,296.977Z" transform="translate(5997.518 4172.011)" fill="#fff"/><path d="M-188.745,297.047c.955-.241,1.449.129,1.338.982a4.757,4.757,0,0,1-.172,1.141c-.269.671-.922.777-1.544.824a2.846,2.846,0,0,1-3.169-2.761,2.956,2.956,0,0,1,2.877-3.25c.179-.006.358-.01.537,0a1.3,1.3,0,0,1,1.353,1.549c-.5-.105-.994-.252-1.5-.308-1.444-.162-2.192.975-1.822,2.4a1.506,1.506,0,0,0,1.6,1.145c.352-.017.557-.176.553-.536C-188.7,297.844-188.725,297.456-188.745,297.047Z" transform="translate(5938.856 4171.839)" fill="#fff"/><path d="M-300.864,295.028c1.04-.206,1.353.041,1.361,1.051.006.829-.011,1.659.006,2.488.018.868.261,1.094,1.125,1.077a4.522,4.522,0,0,0,.674-.083c.221-.038.438-.1.659-.144.113,1.077-.155,1.387-1.2,1.391a6.076,6.076,0,0,1-1.07-.035,1.77,1.77,0,0,1-1.538-1.862C-300.921,297.617-300.864,296.317-300.864,295.028Z" transform="translate(6036.841 4170.952)" fill="#fff"/></g></svg>