<svg xmlns="http://www.w3.org/2000/svg" width="15.285" height="15.285" viewBox="0 0 15.285 15.285"><g transform="translate(146.25 -186.39)"><g transform="translate(-146.25 186.39)"><path d="M-130.965,196.122c-.058.235-.1.475-.177.7a3.143,3.143,0,0,1-1.522,1.782.2.2,0,0,0-.125.2c.008.343,0,.686,0,1.03a1.343,1.343,0,0,1-1.383,1.386q-1.328,0-2.656,0a.215.215,0,0,0-.2.1.858.858,0,0,1-.721.354c-.582,0-1.164,0-1.746,0a.893.893,0,0,1-.909-.892.892.892,0,0,1,.9-.9c.587,0,1.174,0,1.761,0a.852.852,0,0,1,.717.36.2.2,0,0,0,.185.089c.885,0,1.771,0,2.656,0a.453.453,0,0,0,.494-.491c0-.293,0-.585,0-.869h-.884v-6.265h.877V190.9h-.874c-.014-.268-.01-.522-.042-.771a2.219,2.219,0,0,0-2.148-1.914q-1.851-.015-3.7,0a2.235,2.235,0,0,0-2.181,2.176c0,.163,0,.327,0,.506h-.889v1.81h.876v6.274a3.47,3.47,0,0,1-1.318-.123,3.156,3.156,0,0,1-2.255-2.636.974.974,0,0,0-.027-.1v-.6c.015-.072.031-.143.045-.215a3.137,3.137,0,0,1,1.673-2.25.177.177,0,0,0,.1-.186q-.005-1.014,0-2.028a6.516,6.516,0,0,1,.029-.833,3.978,3.978,0,0,1,2.648-3.378,7.311,7.311,0,0,1,1.023-.245h4.239c.195.036.392.062.584.108a4.064,4.064,0,0,1,3.117,3.932c.006.8,0,1.6,0,2.4a.24.24,0,0,0,.145.251,3.117,3.117,0,0,1,1.531,1.825c.065.2.1.412.148.618Z" transform="translate(146.25 -186.39)" fill="#fff"/></g></g></svg>