<svg xmlns="http://www.w3.org/2000/svg" width="20.363" height="20.364" viewBox="0 0 20.363 20.364"><g transform="translate(146.25 -186.39)"><g transform="translate(-146.25 186.39)"><path d="M-125.887,199.356c-.077.313-.131.633-.235.936a4.187,4.187,0,0,1-2.028,2.374.263.263,0,0,0-.167.271c.011.457.006.915,0,1.372a1.789,1.789,0,0,1-1.843,1.847q-1.77,0-3.539,0a.286.286,0,0,0-.262.128,1.143,1.143,0,0,1-.96.471c-.775,0-1.551,0-2.326,0a1.19,1.19,0,0,1-1.211-1.188,1.189,1.189,0,0,1,1.2-1.2c.782-.005,1.564,0,2.346,0a1.135,1.135,0,0,1,.956.48.266.266,0,0,0,.246.118c1.18,0,2.359,0,3.539,0a.6.6,0,0,0,.658-.654c0-.39,0-.78,0-1.158h-1.178V194.8h1.168V192.4h-1.165c-.018-.357-.014-.7-.056-1.027a2.957,2.957,0,0,0-2.862-2.551q-2.465-.02-4.931,0a2.977,2.977,0,0,0-2.906,2.9c0,.217,0,.435,0,.674h-1.185V194.8h1.167v8.359a4.623,4.623,0,0,1-1.755-.164,4.2,4.2,0,0,1-3-3.512,1.3,1.3,0,0,0-.036-.133v-.8c.02-.1.042-.19.06-.286a4.18,4.18,0,0,1,2.229-3,.236.236,0,0,0,.139-.247q-.007-1.351,0-2.7a8.681,8.681,0,0,1,.038-1.11,5.3,5.3,0,0,1,3.528-4.5,9.74,9.74,0,0,1,1.363-.327h5.648c.259.047.522.082.778.144a5.414,5.414,0,0,1,4.152,5.238c.008,1.066.005,2.132,0,3.2a.32.32,0,0,0,.194.335,4.152,4.152,0,0,1,2.04,2.432c.087.268.132.549.2.823Z" transform="translate(146.25 -186.39)" fill="#e6e6e6"/></g></g></svg>