<svg xmlns="http://www.w3.org/2000/svg" width="24.856" height="13.001" viewBox="0 0 24.856 13.001"><g transform="translate(-5648.096 -4597.798)"><path d="M-775.247,253.058c.351-1.276.717-2.468,1-3.679.157-.68.617-.7,1.134-.716.493-.019.64.319.747.706.336,1.213.673,2.425,1.052,3.791.554-1.736,1.065-3.319,1.559-4.907a1.017,1.017,0,0,1,.654-.787.925.925,0,0,1,.952.166.877.877,0,0,1,.287.974q-1.23,3.659-2.474,7.312a.9.9,0,0,1-.962.664.956.956,0,0,1-.946-.787c-.343-1.279-.667-2.563-1.047-4.036-.319,1.22-.591,2.257-.862,3.294-.059.225-.106.452-.17.675a1.013,1.013,0,0,1-.964.854.961.961,0,0,1-1.013-.779q-.771-2.278-1.533-4.559-1.034-3.09-2.063-6.182c-.233-.7-.046-1.238.495-1.415.586-.192,1.083.126,1.313.84q1.349,4.186,2.7,8.371C-775.379,252.91-775.328,252.951-775.247,253.058Z" transform="translate(6428.097 4354.206)" fill="#fff"/><path d="M-649.933,275.452c.532-.533.952-.97,1.391-1.388a.867.867,0,0,1,1.288-.093c.336.328.27.844-.132,1.277s-1.155.755-1.117,1.255c.033.441.707.833,1.1,1.246.232.245.458.5.7.734a.9.9,0,0,1,.047,1.249c-.24.356-.859.3-1.235-.078-.329-.327-.636-.677-.955-1.015s-.633-.67-1.009-1.068a5.858,5.858,0,0,0-.074,1.422.881.881,0,0,1-.929.962.9.9,0,0,1-.908-.992q-.008-3.8,0-7.6a.893.893,0,0,1,.9-1c.577-.012.93.364.933,1.02C-649.929,272.692-649.933,274-649.933,275.452Z" transform="translate(6316.133 4330.83)" fill="#fff"/><path d="M-598.252,299.862c0,.739.008,1.477,0,2.216a.853.853,0,0,1-.882.932.886.886,0,0,1-.93-.906q-.021-2.216,0-4.431c.007-.634.322-.91.952-.906.546,0,.852.327.86.942C-598.244,298.427-598.252,299.144-598.252,299.862Z" transform="translate(6270.997 4307.776)" fill="#fff"/><path d="M-677.641,299.869c0,.737.008,1.475,0,2.212a.95.95,0,0,1-.965.928.872.872,0,0,1-.852-.907q-.02-2.212,0-4.423a.849.849,0,0,1,.9-.913c.582-.005.906.324.914.955C-677.634,298.437-677.641,299.153-677.641,299.869Z" transform="translate(6340.319 4307.777)" fill="#fff"/><path d="M-680,270.961a1.1,1.1,0,0,1,1.107,1.062,1.139,1.139,0,0,1-1.182,1.069,1.1,1.1,0,0,1-1.071-1.087A1.009,1.009,0,0,1-680,270.961Z" transform="translate(6341.783 4330.309)" fill="#fff"/><path d="M-600.7,273.092a1.15,1.15,0,0,1-1.143-1.049,1.1,1.1,0,0,1,1.156-1.083,1.071,1.071,0,0,1,1.1,1.063A1.117,1.117,0,0,1-600.7,273.092Z" transform="translate(6272.535 4330.31)" fill="#fff"/></g></svg>