<svg xmlns="http://www.w3.org/2000/svg" width="12.036" height="16.539" viewBox="0 0 12.036 16.539"><g transform="translate(-1116 -8.78)"><path d="M129.07,402.692v8.972a1.152,1.152,0,0,1-1.452,1.112l-4.725-1.281a1.152,1.152,0,0,1-.852-1.112v-9.71a.984.984,0,0,1,.671-.933l.743-.25c-.555.231-.067.445-.067.445l.06.031a1.073,1.073,0,0,1,.117.033l4.725,1.6A1.154,1.154,0,0,1,129.07,402.692Z" transform="translate(993.96 -387.497)" fill="#fff" opacity="0.46"/><path d="M134.076,386.981V396.2a.986.986,0,0,1-.688.938L129.07,398.5l-5.749,1.819a.009.009,0,0,0-.007,0c-.864.4,0,.955.079,1l-.5-.136a1.152,1.152,0,0,1-.852-1.112v-9.71a.984.984,0,0,1,.671-.933l10.065-3.385A.986.986,0,0,1,134.076,386.981Z" transform="translate(993.96 -377.215)" fill="#fff"/></g></svg>