<svg xmlns="http://www.w3.org/2000/svg" width="13.979" height="13.382" viewBox="0 0 13.979 13.382"><g transform="translate(-662.221 -22.618)"><path d="M-375.836-12.624c.5.349.524.634.081,1.079l-1.25,1.252a6.392,6.392,0,0,1,2.716,5.216h-13.078a6.377,6.377,0,0,1,2.714-5.218l-1.25-1.251c-.444-.444-.423-.73.081-1.079h.255a4.325,4.325,0,0,1,.421.318c.343.328.674.668,1.01,1,.368.367.367.366.838.169a3.361,3.361,0,0,1,.333-.12,6.877,6.877,0,0,1,4.907.254.232.232,0,0,0,.3-.067q.6-.618,1.224-1.221a4.631,4.631,0,0,1,.439-.336Zm-7.715,5.659a.805.805,0,0,0,.807-.809.817.817,0,0,0-.8-.819.82.82,0,0,0-.82.828A.808.808,0,0,0-383.551-6.965Zm5.438,0a.808.808,0,0,0,.82-.8.82.82,0,0,0-.816-.832.817.817,0,0,0-.806.815A.8.8,0,0,0-378.113-6.965Z" transform="translate(1050.039 35.242)" fill="#fff"/><g transform="translate(662.221 31.121)"><g transform="translate(0)"><path d="M-975.918,229.337c-.211-.226-.4-.432-.592-.627a.328.328,0,0,0-.206-.086c-.52-.009-1.04-.009-1.559-.007a.407.407,0,0,1-.41-.191.375.375,0,0,1,.084-.442,2.541,2.541,0,0,1,1.927-1.064,2.281,2.281,0,0,1,1.7.653,3.011,3.011,0,0,1,.456.614.251.251,0,0,0,.252.138q1.061,0,2.122,0,1.493.01,2.987.029a.208.208,0,0,0,.211-.123,2.339,2.339,0,0,1,1.811-1.2,2.3,2.3,0,0,1,2.043.775,1.97,1.97,0,0,1,.293.433.338.338,0,0,1-.328.495c-.379,0-.758-.021-1.137-.024-.6-.005-.6,0-1.04.418-.081.078-.164.153-.284.265.1.087.2.157.279.239.109.109.209.226.312.342a.3.3,0,0,0,.246.117c.525-.006,1.05,0,1.576,0a.388.388,0,0,1,.38.187.356.356,0,0,1-.059.416,2.521,2.521,0,0,1-1.957,1.093,2.11,2.11,0,0,1-1.479-.473,2.627,2.627,0,0,1-.585-.671.489.489,0,0,0-.485-.26c-.954,0-1.908,0-2.862-.007-.7,0-1.4-.018-2.1-.032a.192.192,0,0,0-.2.117,2.334,2.334,0,0,1-1.823,1.205,2.177,2.177,0,0,1-1.8-.545,3.122,3.122,0,0,1-.524-.64.336.336,0,0,1,.319-.518c.47,0,.941,0,1.41.031a.663.663,0,0,0,.538-.2C-976.241,229.649-976.083,229.5-975.918,229.337Z" transform="translate(978.728 -226.918)" fill="#fff"/></g></g></g></svg>