<svg xmlns="http://www.w3.org/2000/svg" width="18" height="12.334" viewBox="0 0 18 12.334"><g transform="translate(754.721 -52.572)"><g transform="translate(-754.721 52.572)"><path d="M-754.721,63.874a1.068,1.068,0,0,0,.113-.1c.481-.575.964-1.149,1.437-1.732a.536.536,0,0,0,.111-.313q.009-4.158.005-8.317a1.862,1.862,0,0,1,.019-.3.644.644,0,0,1,.574-.533c.07-.007.14-.007.211-.007h13.064a2.115,2.115,0,0,1,.228.009.647.647,0,0,1,.56.529,2,2,0,0,1,.019.315q0,4.141,0,8.282a.52.52,0,0,0,.134.363c.484.573.96,1.153,1.445,1.725a.308.308,0,0,1,.073.288.99.99,0,0,1-.928.816c-.064,0-.129.006-.193.006q-7.868,0-15.737,0a1.039,1.039,0,0,1-1.036-.58c-.039-.078-.065-.161-.1-.242Zm9.017-10.7h-5.715c-.482,0-.7.216-.7.7q0,3.367,0,6.734c0,.492.215.706.707.706h11.376c.506,0,.715-.209.715-.715q0-3.341,0-6.682c0-.541-.2-.741-.743-.741Zm2.731,10.733c-.154-.185-.278-.348-.419-.5a.342.342,0,0,0-.219-.1c-1.406-.006-2.812,0-4.218,0-.05,0-.12,0-.148.031-.162.178-.313.366-.486.571Zm-2.74.673h1.177c.047,0,.1.017.138,0a1.332,1.332,0,0,0,.179-.158,1.266,1.266,0,0,0-.169-.167c-.032-.022-.091-.007-.138-.007h-2.389a.321.321,0,0,0-.155.013c-.057.036-.139.1-.133.15.008.062.081.123.14.167.031.023.091.007.138.007Z" transform="translate(754.721 -52.573)" fill="#fff"/></g></g></svg>