<svg xmlns="http://www.w3.org/2000/svg" width="13.979" height="17.127" viewBox="0 0 13.979 17.127"><path d="M-158.45,239.649h-.5a2.849,2.849,0,0,1-1.359-.837,10.68,10.68,0,0,1-1.723-2.494,10.6,10.6,0,0,1-1.054-3.448,6.877,6.877,0,0,1,.092-2.59,4.62,4.62,0,0,1,2.229-3.092,3.39,3.39,0,0,1,2.528-.41,12.061,12.061,0,0,1,1.467.5,1.619,1.619,0,0,0,1.31.009c.289-.128.594-.223.892-.332a4.279,4.279,0,0,1,4.059.487,2.96,2.96,0,0,1,.864.925,3.592,3.592,0,0,0-1.825,3.5,3.688,3.688,0,0,0,2.285,3.227c-.015.055-.022.088-.032.119a10.966,10.966,0,0,1-2.089,3.55,2.159,2.159,0,0,1-2.345.781,10.109,10.109,0,0,1-.994-.343,3.1,3.1,0,0,0-2.109-.1C-157.324,239.274-157.886,239.464-158.45,239.649Z" transform="translate(163.168 -222.522)" fill="#fff"/><path d="M-121.264,203.828a3.374,3.374,0,0,1-.316,1.832,3.892,3.892,0,0,1-1.813,1.893,2.484,2.484,0,0,1-1.285.212A3.753,3.753,0,0,1-121.264,203.828Z" transform="translate(131.665 -203.828)" fill="#fff"/></svg>