<svg xmlns="http://www.w3.org/2000/svg" width="23.389" height="23.408" viewBox="0 0 23.389 23.408"><g transform="translate(-41.983 -57.873)"><g transform="translate(41.983 57.873)"><path d="M65.372,69.518a2.267,2.267,0,0,1-.707,1.7q-2.163,2.158-4.322,4.32l-4.966,4.966a2.239,2.239,0,0,1-3.389,0q-4.635-4.634-9.269-9.269a2.2,2.2,0,0,1-.515-2.587,3.108,3.108,0,0,1,.569-.816q4.614-4.638,9.25-9.254a2.216,2.216,0,0,1,1.673-.7,2.352,2.352,0,0,1,1.614.671q4.716,4.693,9.408,9.409A2.174,2.174,0,0,1,65.372,69.518ZM54.8,74.594V72.787a.5.5,0,0,0-.5-.5H53.066a.5.5,0,0,0-.5.5v1.819a.5.5,0,0,1-.5.5H51.049a.5.5,0,0,0-.357.862L53.324,78.6a.5.5,0,0,0,.714,0l2.644-2.644a.5.5,0,0,0-.357-.862H55.307A.5.5,0,0,1,54.8,74.594Zm.012-8.218V64.552a.5.5,0,0,1,.5-.5h1.009a.5.5,0,0,0,.357-.862l-2.639-2.639a.5.5,0,0,0-.714,0l-2.647,2.647a.5.5,0,0,0,.357.862H52.06a.5.5,0,0,1,.5.5v1.815a.5.5,0,0,0,.5.5h1.24A.5.5,0,0,0,54.815,66.375Z" transform="translate(-41.983 -57.873)" fill="#e6e6e6"/></g></g></svg>