<svg xmlns="http://www.w3.org/2000/svg" width="28.234" height="28.234" viewBox="0 0 28.234 28.234"><g transform="translate(-594 -759)"><rect width="28.234" height="28.234" rx="9" transform="translate(594 759)" fill="#e6f2f6"/><g transform="translate(170.704 151.704)"><path d="M120.321,248.184v-1.816h-.152c-.388,0-.775,0-1.163,0a.455.455,0,1,1,0-.907c.453,0,.906,0,1.367,0a2.329,2.329,0,0,1,.454-.956,2.2,2.2,0,0,1,1.1-.744.143.143,0,0,0,.123-.167c0-.43-.007-.861,0-1.291a.454.454,0,1,1,.906.01q0,.581,0,1.163v.161h1.916v-.148c0-.388,0-.775,0-1.163a.456.456,0,1,1,.907.006c0,.43,0,.86,0,1.3h1.716c0-.15,0-.3,0-.449,0-.3,0-.6,0-.894a.45.45,0,0,1,.87-.172.72.72,0,0,1,.034.236c0,.4,0,.8,0,1.206,0,.07,0,.121.093.142a2.234,2.234,0,0,1,1.765,1.7c0,.014.008.027.017.056h.276c.369,0,.738,0,1.106,0a.454.454,0,1,1,0,.906c-.392,0-.785,0-1.177,0h-.161v1.816h1.309a.456.456,0,1,1,0,.907h-1.3v1.816h.146c.388,0,.775,0,1.163,0a.455.455,0,1,1,0,.907c-.453,0-.907,0-1.348,0-.077.2-.135.387-.224.561a2.2,2.2,0,0,1-1.551,1.193c-.1.022-.12.059-.119.15,0,.425.005.851,0,1.277a.446.446,0,0,1-.352.441.435.435,0,0,1-.483-.213.706.706,0,0,1-.066-.3c-.008-.373,0-.747,0-1.12v-.164h-1.716v.144c0,.388,0,.775,0,1.163a.456.456,0,1,1-.907,0c0-.43,0-.86,0-1.3H122.95c0,.047,0,.1,0,.148,0,.4,0,.8,0,1.206a.447.447,0,0,1-.353.44.435.435,0,0,1-.483-.214.7.7,0,0,1-.066-.3c-.007-.416,0-.832,0-1.248,0-.069,0-.123-.087-.151a2.244,2.244,0,0,1-1.58-1.683.219.219,0,0,0-.015-.027h-.471c-.307,0-.615,0-.922,0a.453.453,0,1,1,0-.906c.4,0,.794,0,1.191,0h.159v-1.816h-1.3a.457.457,0,1,1,.006-.908Zm9.086.454q0-1.326,0-2.652a1.363,1.363,0,0,0-1.434-1.433h-5.3a1.363,1.363,0,0,0-1.433,1.433q0,2.652,0,5.3a1.364,1.364,0,0,0,1.433,1.433h5.3a1.363,1.363,0,0,0,1.433-1.434Q129.407,249.964,129.406,248.638Z" transform="translate(312.489 373.174)" fill="#1c6d8f"/><path d="M217.663,344.231c-.586,0-1.172,0-1.758,0a1.362,1.362,0,0,1-1.419-1.419q0-1.759,0-3.517a1.361,1.361,0,0,1,1.419-1.419q1.758,0,3.517,0a1.361,1.361,0,0,1,1.419,1.419q0,1.759,0,3.517a1.361,1.361,0,0,1-1.419,1.419C218.835,344.232,218.249,344.231,217.663,344.231Zm2.27-3.165c0-.6,0-1.192,0-1.787a.456.456,0,0,0-.494-.5h-3.546a.456.456,0,0,0-.5.5q0,1.766,0,3.532a.458.458,0,0,0,.5.5h3.532a.459.459,0,0,0,.506-.512Q219.933,341.939,219.932,341.066Z" transform="translate(220.147 280.759)" fill="#1c6d8f"/></g></g></svg>