<svg xmlns="http://www.w3.org/2000/svg" width="19.307" height="22.062" viewBox="0 0 19.307 22.062"><g transform="translate(524.994 -276.89)"><g transform="translate(-524.994 276.89)"><path d="M-321.168,276.89c.049.026.1.053.147.076a.868.868,0,0,1,.549.8c.011.544.012,1.09,0,1.634a.9.9,0,0,1-.911.892.9.9,0,0,1-.912-.891c-.01-.516-.006-1.032,0-1.548a.907.907,0,0,1,.631-.924.423.423,0,0,0,.067-.044Z" transform="translate(331.035 -276.89)" fill="#e6e6e6"/><path d="M-321.612,713.225c-.049-.026-.1-.053-.146-.077a.869.869,0,0,1-.549-.8q-.015-.817,0-1.634a.9.9,0,0,1,.912-.891.9.9,0,0,1,.911.892c.012.516,0,1.032,0,1.548a.911.911,0,0,1-.634.923.371.371,0,0,0-.067.044Z" transform="translate(331.048 -691.163)" fill="#1C6D8F"/><path d="M-454.092,386.682a6.9,6.9,0,0,1-6.894-6.89,6.9,6.9,0,0,1,6.906-6.9,6.9,6.9,0,0,1,6.883,6.9A6.9,6.9,0,0,1-454.092,386.682Z" transform="translate(463.744 -368.757)" fill="#e6e6e6"/><path d="M-524.059,396.253a3.271,3.271,0,0,1,.423.139c.426.205.849.419,1.268.637a.917.917,0,0,1,.446,1.252.919.919,0,0,1-1.271.391c-.444-.219-.887-.438-1.323-.673a.893.893,0,0,1-.444-1.044A.969.969,0,0,1-524.059,396.253Z" transform="translate(524.994 -391.11)" fill="#e6e6e6"/><path d="M-524.008,613.011a.934.934,0,0,1-.936-.667.875.875,0,0,1,.4-1.024c.489-.271.987-.527,1.5-.755a.89.89,0,0,1,1.135.434.876.876,0,0,1-.286,1.162c-.507.3-1.042.541-1.57.8A.786.786,0,0,1-524.008,613.011Z" transform="translate(524.983 -596.118)" fill="#e6e6e6"/><path d="M-149.681,399.271a.949.949,0,0,1-.892-.667.893.893,0,0,1,.407-1.042c.478-.261.964-.509,1.458-.737a.9.9,0,0,1,1.161.413.888.888,0,0,1-.308,1.191c-.491.28-1.005.521-1.514.77A1.385,1.385,0,0,1-149.681,399.271Z" transform="translate(166.744 -391.582)" fill="#e6e6e6"/><path d="M-149.671,610.286a2.118,2.118,0,0,1,.368.1c.471.228.941.458,1.4.706a.894.894,0,0,1,.429,1.068.911.911,0,0,1-.937.643.922.922,0,0,1-.33-.086c-.464-.226-.927-.454-1.382-.7a.905.905,0,0,1-.448-1.045A.957.957,0,0,1-149.671,610.286Z" transform="translate(166.735 -595.92)" fill="#e6e6e6"/></g></g></svg>