<svg xmlns="http://www.w3.org/2000/svg" width="14.018" height="15.5" viewBox="0 0 14.018 15.5"><g transform="translate(580.697 -258.682)"><g transform="translate(-580.697 258.682)"><path d="M-431.647,258.682a1.491,1.491,0,0,1,.015.149q0,3.389,0,6.779v.17l-7.972.135c0-.062-.007-.111-.007-.16q0-2.663,0-5.326c0-.117.027-.161.149-.185q3.387-.669,6.772-1.35c.33-.066.657-.141.986-.211Z" transform="translate(445.65 -258.682)" fill="#fff"/><path d="M-431.628,459.186l-3.207-.638q-2.32-.464-4.639-.927c-.09-.018-.127-.043-.127-.141q0-2.717,0-5.434c0-.024,0-.049.007-.091l7.963.136Z" transform="translate(445.637 -443.686)" fill="#fff"/><path d="M-575.595,306.652l-4.893.082V302.2l4.893-.976Z" transform="translate(580.497 -299.401)" fill="#fff"/><path d="M-580.7,449.616l4.908.082v5.431l-1.264-.25c-1.146-.229-2.292-.456-3.437-.688-.235-.048-.207.011-.207-.255q0-2.05,0-4.1Z" transform="translate(580.697 -441.448)" fill="#fff"/></g></g></svg>